<svg xmlns="http://www.w3.org/2000/svg" xmlns:xlink="http://www.w3.org/1999/xlink" width="500" zoomAndPan="magnify" viewBox="0 0 375 374.999991" height="500" preserveAspectRatio="xMidYMid meet" version="1.0"><defs><g/><clipPath id="id1"><path d="M 61.308594 23.410156 L 314.058594 23.410156 L 314.058594 333.90625 L 61.308594 333.90625 Z M 61.308594 23.410156 " clip-rule="nonzero"/></clipPath><clipPath id="id2"><path d="M 145.605469 326.625 C 158.5625 331.023438 173.292969 333.90625 187.75 333.90625 C 202.210938 333.90625 216.121094 331.433594 228.945312 327.035156 C 229.21875 326.898438 229.488281 326.898438 229.761719 326.761719 C 277.914062 309.167969 313.375 262.710938 314.058594 208.417969 L 314.058594 23.410156 L 61.308594 23.410156 L 61.308594 208.28125 C 61.992188 262.984375 96.910156 309.441406 145.605469 326.625 " clip-rule="nonzero"/></clipPath><clipPath id="id3"><path d="M 185 92.808594 L 191 92.808594 L 191 101 L 185 101 Z M 185 92.808594 " clip-rule="nonzero"/></clipPath><clipPath id="id4"><path d="M 88.285156 190.320312 L 286.882812 190.320312 L 286.882812 193.703125 L 88.285156 193.703125 Z M 88.285156 190.320312 " clip-rule="nonzero"/></clipPath><clipPath id="id5"><path d="M 88.285156 246.121094 L 286.882812 246.121094 L 286.882812 249.558594 L 88.285156 249.558594 Z M 88.285156 246.121094 " clip-rule="nonzero"/></clipPath></defs><rect x="-37.5" width="450" fill="#ffffff" y="-37.499999" height="449.999989" fill-opacity="1"/><rect x="-37.5" width="450" fill="#000000" y="-37.499999" height="449.999989" fill-opacity="1"/><rect x="-37.5" width="450" fill="#ffffff" y="-37.499999" height="449.999989" fill-opacity="1"/><rect x="-37.5" width="450" fill="#000000" y="-37.499999" height="449.999989" fill-opacity="1"/><g clip-path="url(#id1)"><g clip-path="url(#id2)"><path stroke-linecap="butt" transform="matrix(0.751114, 0, 0, 0.749717, 61.308334, 23.409729)" fill="none" stroke-linejoin="miter" d="M 112.229441 404.439668 C 129.479854 410.306465 149.091342 414.151666 168.338788 414.151666 C 187.591434 414.151666 206.110795 410.853547 223.184387 404.986749 C 223.54843 404.804389 223.907272 404.804389 224.271314 404.622028 C 288.379195 381.154838 335.590303 319.188743 336.50041 246.770787 L 336.50041 0.000570172 L 0.000345721 0.000570172 L 0.000345721 246.588426 C 0.910452 319.553464 47.398676 381.519559 112.229441 404.439668 " stroke="#d9d9d9" stroke-width="14" stroke-opacity="1" stroke-miterlimit="4"/></g></g><g fill="#ff1616" fill-opacity="1"><g transform="translate(187.495826, 157.658817)"><g/></g></g><path fill="#f9f6f2" d="M 182.804688 173.949219 C 181.53125 167.210938 176.804688 162.878906 170.289062 161.546875 C 177.777344 161.898438 182.570312 166.363281 182.804688 173.949219 Z M 222.5625 159.957031 C 223.042969 159.945312 223.535156 159.976562 224.011719 159.976562 C 225.941406 159.941406 227.519531 159.960938 229.34375 160.6875 C 231.230469 161.476562 232.359375 162.929688 233.320312 164.679688 C 232.238281 163.242188 230.855469 161.957031 229.046875 161.554688 C 227.339844 161.210938 225.863281 161.453125 224.171875 161.742188 C 216.917969 163.367188 212.074219 162.445312 206.761719 162.722656 C 199.644531 163.09375 194.347656 167.691406 193.976562 175.007812 C 193.707031 180.308594 194.710938 188.574219 197.59375 193.40625 L 184.441406 193.40625 C 184.648438 191.046875 185.210938 188.667969 185.222656 185.796875 C 185.058594 180.597656 183.753906 175.914062 183.765625 171.070312 C 183.527344 175.875 184.578125 180.695312 184.5625 185.796875 C 184.457031 188.867188 183.785156 190.996094 183.453125 193.40625 L 181.003906 193.40625 C 183.003906 189.457031 183.402344 184.433594 183.058594 179.769531 C 182.886719 184.65625 182.460938 189.128906 179.863281 193.40625 L 177.222656 193.40625 C 180.09375 188.546875 181.109375 180.4375 180.835938 175.039062 C 180.464844 167.722656 175.167969 163.121094 168.050781 162.746094 C 162.738281 162.46875 157.894531 163.398438 150.640625 161.769531 C 148.949219 161.480469 147.472656 161.238281 145.765625 161.582031 C 143.957031 161.984375 142.574219 163.269531 141.492188 164.707031 C 142.453125 162.957031 143.582031 161.503906 145.46875 160.714844 C 147.722656 159.820312 149.980469 160.003906 152.335938 160.003906 C 153.363281 160.453125 154.847656 160.925781 156.113281 160.792969 C 153.523438 160.617188 152.101562 158.953125 150.355469 157.535156 C 149.066406 156.484375 147.816406 155.4375 146.519531 154.535156 C 145.53125 153.859375 144.550781 153.242188 143.378906 152.953125 C 142.667969 152.816406 142.109375 152.851562 141.402344 152.984375 C 139.800781 153.316406 138.128906 154.542969 137.175781 155.898438 C 136.378906 157.105469 136.398438 158.886719 134.738281 160.175781 C 133.464844 161.085938 132.058594 161.519531 130.554688 161.921875 C 130.003906 162.039062 127.574219 163.402344 127.210938 163.96875 C 127.519531 163.304688 129.816406 161.695312 130.410156 161.449219 C 131.722656 160.964844 133.050781 160.414062 134.039062 159.394531 C 135.238281 158.148438 134.925781 157.039062 135.59375 155.394531 C 135.046875 155.660156 134.496094 155.925781 133.9375 156.171875 C 131.304688 157.320312 128.445312 158.0625 125.746094 156.675781 C 123.347656 155.445312 122.75 153.558594 120.203125 152.144531 C 122.9375 153.328125 123.417969 155.113281 125.980469 156.167969 C 128.5625 157.234375 131.070312 156.328125 133.410156 155.085938 C 135.730469 153.855469 138.480469 151.878906 140.957031 151.183594 C 143.566406 150.449219 145.511719 151.214844 147.777344 152.554688 C 150.464844 154.136719 153.148438 156.367188 155.847656 157.761719 C 156.945312 158.320312 157.976562 158.765625 159.222656 158.839844 C 164.75 158.996094 167.300781 158.125 173.210938 158.84375 C 174.511719 159.054688 176.105469 159.453125 177.15625 160.335938 C 177.679688 160.753906 178.359375 161.402344 178.617188 162.035156 C 178.546875 161.460938 177.769531 160.496094 177.375 160.09375 C 174.707031 157.363281 169.019531 157.449219 165.539062 155.761719 C 163.351562 154.484375 160.183594 154.234375 156.820312 152.164062 C 154.910156 150.851562 154.082031 149.871094 152.835938 147.976562 C 152.0625 146.835938 151.65625 146.207031 150.351562 145.644531 C 148.21875 144.765625 145.367188 144.871094 143.078125 145.136719 C 141.253906 145.375 139.414062 145.648438 137.585938 145.804688 C 135.765625 145.972656 134.023438 146.066406 132.234375 145.597656 C 131.109375 145.28125 130.457031 144.910156 129.625 144.097656 C 127.632812 141.984375 127.421875 141.28125 124.390625 140.257812 C 127.507812 141.144531 127.742188 141.804688 129.945312 143.746094 C 130.753906 144.421875 131.351562 144.707031 132.386719 144.929688 C 134.085938 145.195312 135.761719 145 137.449219 144.753906 C 140.054688 144.332031 142.636719 143.597656 145.355469 143.335938 C 143.546875 141.59375 142.878906 138.777344 142.59375 136.34375 C 142.277344 133.203125 142.660156 130.292969 142.324219 127.25 C 142.097656 125.714844 141.753906 124.652344 140.898438 123.34375 C 139.773438 121.730469 138.523438 120.820312 136.8125 119.882812 C 140.191406 121.417969 142.359375 123.359375 143.210938 127.078125 C 144.101562 130.984375 143.53125 136.429688 145.773438 140.140625 C 146.21875 140.871094 146.628906 141.375 147.367188 141.820312 C 148.71875 142.605469 150.289062 142.503906 151.769531 143.074219 C 150.167969 139.683594 150.195312 136.886719 152.347656 133.699219 C 152.839844 132.980469 152.957031 132.335938 152.960938 131.476562 C 152.9375 128.71875 151.101562 125.515625 150.34375 122.667969 C 150.054688 121.59375 149.652344 120.3125 149.925781 119.203125 C 150.179688 118.363281 150.804688 117.238281 151.152344 116.296875 C 150.90625 117.117188 150.34375 118.484375 150.230469 119.257812 C 150.152344 120.238281 150.660156 121.554688 150.96875 122.472656 C 151.71875 124.355469 152.792969 126.164062 153.609375 128.078125 C 154.0625 129.203125 154.382812 130.160156 154.535156 131.367188 C 154.652344 132.628906 154.535156 133.566406 153.925781 134.6875 C 153.234375 135.945312 152.863281 136.980469 152.949219 138.425781 C 153.054688 139.558594 153.375 140.339844 153.902344 141.332031 C 155.390625 144.019531 156.457031 147.570312 158.792969 148.929688 C 161.960938 150.527344 164.519531 150.421875 167.566406 151.558594 C 170.195312 152.4375 173.558594 152.359375 176.859375 153.375 C 179.625 154.285156 181.75 155.863281 183.351562 158.183594 C 183.191406 159.386719 183.148438 160.773438 183.351562 161.804688 C 183.320312 158.445312 185.824219 155.382812 185.34375 152.957031 C 185.117188 151.8125 183.863281 150.972656 182.894531 150.488281 C 179.679688 148.945312 175.753906 147.714844 172.890625 145.8125 C 172.125 145.261719 171.195312 144.183594 170.558594 143.855469 C 169.308594 143.246094 168.078125 142.773438 166.742188 142.386719 C 165.390625 142.070312 164.179688 141.710938 163.058594 140.863281 C 162.292969 140.285156 161.707031 139.46875 161.648438 138.492188 C 161.539062 136.5625 162.996094 134.878906 162.863281 133.785156 C 162.703125 132.453125 160.8125 130.730469 160.070312 128.515625 C 159.707031 127.351562 159.644531 126.476562 159.792969 125.265625 C 159.839844 127.492188 160.675781 128.839844 162.136719 130.433594 C 163.273438 131.667969 164.710938 132.9375 164.421875 134.792969 C 164.277344 135.660156 163.710938 137.417969 163.90625 138.171875 C 164.144531 138.992188 166.59375 139.234375 167.246094 139.300781 C 167.710938 139.34375 168.167969 139.40625 168.621094 139.480469 C 168.1875 137.964844 167.964844 136.453125 167.765625 134.789062 C 167.527344 132.414062 167.457031 130.359375 167.800781 128.15625 C 168.585938 119.300781 165.511719 120.648438 164.570312 113.949219 C 164.386719 112.660156 164.488281 112.390625 163.550781 111.308594 C 161.074219 108.539062 155.84375 107.722656 156.265625 104.664062 C 156.265625 105.660156 156.820312 106.28125 157.644531 106.785156 C 159.5625 107.949219 162.652344 108.507812 164.707031 110.324219 C 165.144531 107.949219 166.144531 105.804688 167.390625 103.585938 C 168.042969 102.433594 168.707031 101.375 169.492188 100.3125 L 170.449219 99.039062 C 169.597656 100.457031 168.621094 102.421875 168.011719 103.886719 C 166.664062 107.261719 165.535156 110.976562 166.882812 114.527344 C 168.058594 117.625 169.777344 118.535156 170.878906 121.0625 L 171.242188 120.664062 C 174.15625 117.839844 177.082031 116.894531 180.8125 115.578125 C 184.207031 114.371094 186.972656 113.402344 189.425781 110.613281 C 190.753906 108.949219 191.320312 107.464844 191.734375 105.382812 C 192.285156 102.367188 192.097656 99.777344 191.652344 96.761719 C 192.320312 99.785156 192.714844 102.386719 192.480469 105.488281 C 192.203125 107.777344 191.710938 109.425781 190.449219 111.371094 C 188.023438 114.660156 185.242188 115.953125 181.632812 117.597656 C 178.585938 118.976562 175.78125 120.117188 173.554688 122.707031 C 172.695312 123.832031 172.230469 124.816406 171.90625 126.058594 C 171.226562 128.617188 171.554688 131.714844 172.003906 134.160156 C 172.347656 135.984375 172.757812 137.804688 173.691406 139.425781 C 174.261719 140.378906 174.738281 140.867188 175.695312 141.421875 C 177.171875 142.160156 179.273438 142.824219 181.351562 143.484375 C 181.828125 143.757812 182.449219 144.121094 183.433594 145.046875 C 183.363281 144.804688 182.019531 143.234375 181.65625 142.902344 C 182.394531 139.601562 184.984375 136.949219 187.207031 134.535156 C 189.046875 132.539062 190.566406 130.867188 191.585938 128.304688 C 192.082031 126.914062 192.226562 125.839844 192.121094 124.367188 C 191.972656 122.457031 191.457031 121.035156 190.589844 119.332031 C 192.738281 122.179688 194.054688 125.125 193.511719 128.753906 C 192.964844 131.894531 191.753906 134.011719 190.144531 136.695312 C 188.9375 138.691406 186.367188 142.316406 187.328125 144.761719 C 187.6875 145.589844 188.191406 146.203125 188.804688 146.847656 C 188.988281 146.996094 189.175781 147.15625 189.363281 147.324219 C 191.5625 149.394531 193.019531 152.71875 191.335938 155.519531 C 190.628906 156.609375 190.273438 157.046875 190.148438 158.410156 C 190.40625 157.085938 190.824219 156.722656 191.664062 155.761719 C 192.351562 154.964844 192.671875 154.292969 192.820312 153.46875 C 193.5625 152.921875 194.289062 152.347656 195.015625 151.714844 C 197.019531 149.894531 198.363281 148.292969 199.136719 145.65625 C 200.007812 142.335938 198.484375 139.328125 198.433594 136.015625 C 198.429688 134.457031 198.636719 133.332031 199.222656 131.894531 C 199.84375 130.3125 200.484375 129.082031 200.597656 127.742188 C 200.75 125.019531 199.097656 121.433594 198.808594 118.398438 C 198.65625 116.390625 198.855469 114.992188 199.664062 113.136719 C 199.261719 115.015625 199.359375 116.339844 199.941406 118.15625 C 200.898438 121.046875 202.824219 123.425781 203.660156 126.527344 L 204.070312 126.203125 C 205.902344 124.832031 207.773438 123.710938 209.667969 122.449219 C 213.40625 119.867188 214.503906 116.546875 214.601562 112.175781 C 214.648438 110 214.347656 106.621094 214.886719 104.609375 C 215.074219 103.941406 215.28125 103.460938 215.714844 102.921875 C 215.007812 104.085938 214.988281 105.492188 215.09375 106.8125 C 215.253906 108.589844 215.5625 110.34375 215.738281 112.128906 C 215.9375 114.378906 215.921875 116.09375 215.351562 118.300781 C 214.5625 120.992188 213.378906 122.667969 211.28125 124.519531 C 208.886719 126.617188 204.625 129.601562 203.449219 132.582031 C 203.011719 133.679688 202.824219 134.371094 203.015625 135.695312 C 203.328125 137.839844 204.570312 140.203125 204.90625 143.046875 C 205.3125 142.695312 205.710938 142.296875 206.117188 141.832031 C 208.148438 139.40625 209 136.097656 210.539062 133.519531 C 211.429688 132.058594 212.230469 131.140625 213.695312 130.226562 C 212.511719 131.371094 211.972656 132.382812 211.460938 133.929688 C 211.003906 135.410156 210.753906 136.890625 210.4375 138.402344 C 210.039062 140.296875 209.644531 141.738281 208.785156 143.492188 C 207.65625 145.707031 206.441406 147.074219 204.472656 148.589844 C 204.1875 149.683594 203.816406 150.675781 203.359375 151.621094 C 202.53125 152.058594 201.648438 152.347656 200.761719 152.695312 C 200.21875 152.910156 199.742188 153.121094 199.253906 153.449219 C 198.824219 153.753906 198.542969 154.039062 198.347656 154.535156 C 198.597656 154.082031 198.902344 153.851562 199.351562 153.609375 C 199.859375 153.367188 200.347656 153.226562 200.890625 153.082031 C 202.875 152.605469 205.546875 152.164062 207.355469 151.558594 C 210.402344 150.421875 212.964844 150.527344 216.132812 148.929688 C 218.464844 147.570312 219.53125 144.019531 221.019531 141.332031 C 221.546875 140.339844 221.867188 139.558594 221.972656 138.425781 C 222.058594 136.980469 221.691406 135.945312 221 134.6875 C 220.386719 133.566406 220.273438 132.628906 220.386719 131.367188 C 220.539062 130.160156 220.855469 129.203125 221.3125 128.078125 C 222.128906 126.164062 223.203125 124.355469 223.953125 122.472656 C 224.265625 121.554688 224.769531 120.238281 224.691406 119.257812 C 224.578125 118.484375 224.015625 117.117188 223.773438 116.296875 C 224.121094 117.238281 224.742188 118.363281 224.996094 119.203125 C 225.570312 121.292969 223.152344 126.414062 222.503906 128.515625 C 222.199219 129.523438 221.984375 130.417969 221.960938 131.476562 C 221.96875 132.335938 222.082031 132.980469 222.574219 133.699219 C 224.730469 136.886719 224.753906 139.683594 223.152344 143.074219 C 225.445312 142.1875 227.496094 142.882812 229.152344 140.140625 C 231.390625 136.429688 230.820312 130.984375 231.714844 127.078125 C 232.5625 123.359375 234.730469 121.417969 238.109375 119.882812 C 236.398438 120.820312 235.148438 121.730469 234.023438 123.34375 C 233.167969 124.652344 232.824219 125.714844 232.597656 127.25 C 232.261719 130.292969 232.644531 133.203125 232.328125 136.34375 C 232.042969 138.777344 231.375 141.59375 229.570312 143.335938 C 232.285156 143.597656 234.867188 144.332031 237.472656 144.753906 C 239.164062 145 240.835938 145.195312 242.535156 144.929688 C 243.570312 144.707031 244.167969 144.421875 244.980469 143.746094 C 247.179688 141.804688 247.414062 141.144531 250.53125 140.257812 C 247.503906 141.28125 247.289062 141.984375 245.296875 144.097656 C 244.464844 144.910156 243.8125 145.28125 242.683594 145.597656 C 240.902344 146.066406 239.160156 145.972656 237.339844 145.804688 C 235.507812 145.648438 233.667969 145.375 231.847656 145.136719 C 229.554688 144.871094 226.703125 144.765625 224.570312 145.644531 C 223.265625 146.207031 222.859375 146.835938 222.085938 147.976562 C 220.839844 149.871094 220.015625 150.851562 218.101562 152.164062 C 212.691406 155.496094 206.109375 156.226562 200.292969 158.484375 C 199.511719 158.761719 198.789062 159.175781 198.027344 159.742188 C 197.539062 160.113281 197.132812 160.46875 196.734375 160.933594 C 196.554688 161.132812 196.261719 161.464844 196.195312 161.726562 C 196.273438 161.558594 196.675781 161.117188 196.816406 161.011719 C 197.265625 160.628906 197.699219 160.320312 198.207031 160.015625 C 202.851562 157.488281 210.445312 158.988281 215.699219 158.839844 C 218.085938 158.734375 221.144531 156.589844 223.0625 155.265625 C 225.304688 153.714844 228.503906 151.292969 231.222656 150.941406 C 233.070312 150.703125 234.921875 151.398438 236.535156 152.238281 C 239.589844 153.824219 243.03125 156.554688 246.441406 156.644531 C 248.46875 156.699219 250.15625 155.734375 251.585938 154.371094 C 252.585938 153.414062 253.445312 152.699219 254.71875 152.144531 C 252.171875 153.558594 251.574219 155.445312 249.175781 156.675781 C 246.476562 158.0625 243.617188 157.320312 240.984375 156.171875 C 240.425781 155.925781 239.875 155.660156 239.328125 155.394531 C 239.996094 157.039062 239.683594 158.148438 240.882812 159.394531 C 241.871094 160.414062 243.203125 160.964844 244.515625 161.449219 C 245.105469 161.695312 247.402344 163.304688 247.710938 163.96875 C 247.347656 163.402344 244.917969 162.039062 244.367188 161.921875 C 242.863281 161.519531 241.457031 161.085938 240.183594 160.175781 C 238.523438 158.886719 238.542969 157.105469 237.75 155.898438 C 236.792969 154.542969 235.121094 153.316406 233.523438 152.984375 C 232.816406 152.851562 232.253906 152.816406 231.542969 152.953125 C 229.390625 153.425781 226.421875 156.039062 224.6875 157.445312 C 223.007812 158.804688 221.492188 160.242188 219.144531 159.722656 C 219.164062 159.71875 219.9375 160.226562 222.5625 159.957031 Z M 186.648438 180.21875 C 185.261719 175.414062 186.210938 172.152344 183.757812 167.296875 C 183.222656 166.324219 182.625 165.34375 181.855469 164.542969 C 187.453125 169.367188 185.71875 174.808594 186.648438 180.21875 Z M 179.988281 162.074219 C 178.878906 157.734375 171.675781 156.210938 168.574219 155.304688 C 171.765625 155.539062 180.011719 157.074219 179.988281 162.074219 Z M 184.789062 161.992188 C 185.015625 158.546875 185.742188 157.539062 186.335938 154.625 C 186.851562 151.707031 185.675781 150.027344 182.730469 148.636719 C 185.339844 149.332031 187.726562 151.027344 187.457031 154.011719 C 187.253906 156.277344 185.433594 158.289062 184.789062 161.992188 " fill-opacity="1" fill-rule="evenodd"/><path fill="#f9f6f2" d="M 118.117188 165.527344 C 117.835938 163.640625 118.261719 161.640625 119.46875 159.972656 C 120.675781 158.304688 122.433594 157.273438 124.316406 156.949219 C 124.597656 158.835938 124.171875 160.832031 122.964844 162.5 C 121.761719 164.167969 120 165.203125 118.117188 165.527344 " fill-opacity="1" fill-rule="evenodd"/><path fill="#f9f6f2" d="M 134.140625 170.324219 C 132.898438 169.402344 131.996094 168.015625 131.730469 166.367188 C 131.464844 164.71875 131.882812 163.117188 132.777344 161.851562 C 134.019531 162.773438 134.917969 164.160156 135.1875 165.808594 C 135.449219 167.457031 135.03125 169.058594 134.140625 170.324219 " fill-opacity="1" fill-rule="evenodd"/><path fill="#f9f6f2" d="M 132.238281 159.496094 C 131.429688 160.222656 130.34375 160.648438 129.167969 160.601562 C 127.996094 160.550781 126.949219 160.039062 126.203125 159.246094 C 127.011719 158.515625 128.097656 158.089844 129.273438 158.140625 C 130.445312 158.1875 131.492188 158.703125 132.238281 159.496094 " fill-opacity="1" fill-rule="evenodd"/><path fill="#f9f6f2" d="M 125.160156 148.757812 C 124.511719 149.933594 124.304688 151.359375 124.695312 152.761719 C 125.082031 154.160156 125.992188 155.269531 127.15625 155.945312 C 127.808594 154.769531 128.011719 153.34375 127.625 151.941406 C 127.234375 150.542969 126.324219 149.429688 125.160156 148.757812 " fill-opacity="1" fill-rule="evenodd"/><path fill="#f9f6f2" d="M 121.925781 154.085938 C 121.246094 155.648438 119.980469 156.953125 118.273438 157.648438 C 116.574219 158.339844 114.75 158.285156 113.175781 157.640625 C 113.855469 156.082031 115.121094 154.773438 116.828125 154.078125 C 118.527344 153.386719 120.347656 153.441406 121.925781 154.085938 " fill-opacity="1" fill-rule="evenodd"/><path fill="#f9f6f2" d="M 120.242188 151.476562 C 120.652344 150.054688 120.53125 148.476562 119.773438 147.070312 C 119.015625 145.667969 117.769531 144.695312 116.355469 144.253906 C 115.949219 145.671875 116.070312 147.25 116.828125 148.65625 C 117.582031 150.0625 118.828125 151.035156 120.242188 151.476562 " fill-opacity="1" fill-rule="evenodd"/><path fill="#f9f6f2" d="M 126.839844 164.511719 C 125.800781 164.84375 124.886719 165.5625 124.335938 166.601562 C 123.78125 167.640625 123.699219 168.800781 124.007812 169.847656 C 125.042969 169.515625 125.957031 168.796875 126.511719 167.757812 C 127.0625 166.71875 127.144531 165.558594 126.839844 164.511719 " fill-opacity="1" fill-rule="evenodd"/><path fill="#f9f6f2" d="M 167.863281 111.40625 C 169.390625 111.734375 171.035156 111.484375 172.457031 110.589844 C 173.878906 109.691406 174.808594 108.308594 175.167969 106.792969 C 173.644531 106.464844 172 106.714844 170.574219 107.609375 C 169.15625 108.507812 168.222656 109.890625 167.863281 111.40625 " fill-opacity="1" fill-rule="evenodd"/><path fill="#f9f6f2" d="M 165.847656 104.253906 C 166.402344 103.003906 166.488281 101.546875 165.972656 100.164062 C 165.457031 98.78125 164.4375 97.734375 163.203125 97.152344 C 162.644531 98.402344 162.558594 99.859375 163.074219 101.242188 C 163.589844 102.625 164.609375 103.671875 165.847656 104.253906 " fill-opacity="1" fill-rule="evenodd"/><path fill="#f9f6f2" d="M 157.609375 105.875 C 156.886719 104.714844 156.601562 103.28125 156.917969 101.84375 C 157.238281 100.402344 158.101562 99.222656 159.246094 98.472656 C 159.96875 99.632812 160.253906 101.066406 159.9375 102.507812 C 159.621094 103.949219 158.753906 105.128906 157.609375 105.875 " fill-opacity="1" fill-rule="evenodd"/><path fill="#f9f6f2" d="M 186.03125 121.324219 C 185.628906 122.792969 185.777344 124.417969 186.574219 125.855469 C 187.375 127.292969 188.671875 128.28125 190.132812 128.714844 C 190.539062 127.246094 190.386719 125.621094 189.589844 124.183594 C 188.792969 122.746094 187.492188 121.757812 186.03125 121.324219 " fill-opacity="1" fill-rule="evenodd"/><path fill="#f9f6f2" d="M 183.320312 127.140625 C 182.496094 128.425781 182.152344 130.015625 182.480469 131.628906 C 182.8125 133.238281 183.753906 134.570312 185.019531 135.421875 C 185.84375 134.140625 186.1875 132.546875 185.859375 130.9375 C 185.527344 129.324219 184.582031 127.996094 183.320312 127.140625 " fill-opacity="1" fill-rule="evenodd"/><path fill="#f9f6f2" d="M 195.777344 116.78125 C 196.363281 117.824219 196.558594 119.089844 196.222656 120.335938 C 195.886719 121.582031 195.085938 122.578125 194.054688 123.1875 C 193.46875 122.144531 193.273438 120.878906 193.609375 119.632812 C 193.945312 118.386719 194.746094 117.390625 195.777344 116.78125 " fill-opacity="1" fill-rule="evenodd"/><path fill="#f9f6f2" d="M 199.074219 126.769531 C 199.148438 128.292969 198.652344 129.847656 197.5625 131.078125 C 196.472656 132.308594 194.988281 132.992188 193.46875 133.101562 C 193.394531 131.578125 193.890625 130.023438 194.980469 128.792969 C 196.070312 127.5625 197.554688 126.882812 199.074219 126.769531 " fill-opacity="1" fill-rule="evenodd"/><path fill="#f9f6f2" d="M 188.648438 109.589844 C 186.796875 108.882812 185.210938 107.480469 184.320312 105.539062 C 183.425781 103.597656 183.394531 101.484375 184.058594 99.617188 C 185.910156 100.324219 187.496094 101.726562 188.386719 103.667969 C 189.28125 105.609375 189.316406 107.722656 188.648438 109.589844 " fill-opacity="1" fill-rule="evenodd"/><path fill="#f9f6f2" d="M 193.878906 106.816406 C 195.804688 107.269531 197.902344 107 199.734375 105.902344 C 201.5625 104.796875 202.78125 103.066406 203.277344 101.152344 C 201.351562 100.695312 199.253906 100.964844 197.421875 102.066406 C 195.59375 103.171875 194.375 104.898438 193.878906 106.816406 " fill-opacity="1" fill-rule="evenodd"/><path fill="#f9f6f2" d="M 151.945312 131.796875 C 150.40625 131.925781 148.820312 131.476562 147.539062 130.417969 C 146.253906 129.359375 145.515625 127.886719 145.347656 126.351562 C 146.886719 126.222656 148.472656 126.667969 149.757812 127.730469 C 151.042969 128.789062 151.78125 130.261719 151.945312 131.796875 " fill-opacity="1" fill-rule="evenodd"/><path fill="#f9f6f2" d="M 149.816406 123.703125 C 148.296875 123.980469 146.675781 123.6875 145.292969 122.757812 C 143.914062 121.824219 143.035156 120.429688 142.722656 118.917969 C 144.242188 118.640625 145.863281 118.933594 147.246094 119.867188 C 148.625 120.796875 149.503906 122.191406 149.816406 123.703125 " fill-opacity="1" fill-rule="evenodd"/><path fill="#f9f6f2" d="M 153.183594 125.277344 C 154.566406 124.597656 155.695312 123.394531 156.25 121.824219 C 156.804688 120.253906 156.679688 118.609375 156.027344 117.214844 C 154.644531 117.894531 153.515625 119.09375 152.960938 120.664062 C 152.410156 122.234375 152.535156 123.878906 153.183594 125.277344 " fill-opacity="1" fill-rule="evenodd"/><path fill="#f9f6f2" d="M 151.992188 116.777344 C 153.480469 116.378906 154.824219 115.421875 155.671875 113.988281 C 156.519531 112.554688 156.714844 110.917969 156.351562 109.421875 C 154.859375 109.820312 153.519531 110.78125 152.667969 112.210938 C 151.820312 113.644531 151.621094 115.28125 151.992188 116.777344 " fill-opacity="1" fill-rule="evenodd"/><path fill="#f9f6f2" d="M 149.011719 117.476562 C 147.347656 117.273438 145.761719 116.441406 144.632812 115.03125 C 143.5 113.617188 143.042969 111.886719 143.207031 110.21875 C 144.871094 110.421875 146.460938 111.25 147.589844 112.664062 C 148.71875 114.074219 149.179688 115.808594 149.011719 117.476562 " fill-opacity="1" fill-rule="evenodd"/><path fill="#f9f6f2" d="M 150.304688 112.898438 C 149.058594 111.535156 148.316406 109.707031 148.382812 107.710938 C 148.449219 105.722656 149.300781 103.941406 150.632812 102.664062 C 151.878906 104.023438 152.621094 105.855469 152.554688 107.847656 C 152.492188 109.839844 151.636719 111.617188 150.304688 112.898438 " fill-opacity="1" fill-rule="evenodd"/><path fill="#f9f6f2" d="M 143.085938 145.972656 C 142.957031 147.054688 142.417969 148.085938 141.5 148.820312 C 140.582031 149.554688 139.457031 149.851562 138.371094 149.742188 C 138.503906 148.664062 139.042969 147.628906 139.960938 146.898438 C 140.878906 146.160156 142.003906 145.863281 143.085938 145.972656 " fill-opacity="1" fill-rule="evenodd"/><path fill="#f9f6f2" d="M 136.925781 146.761719 C 136.792969 147.84375 136.253906 148.878906 135.335938 149.613281 C 134.417969 150.34375 133.289062 150.644531 132.207031 150.535156 C 132.339844 149.457031 132.878906 148.421875 133.796875 147.691406 C 134.714844 146.953125 135.839844 146.65625 136.925781 146.761719 " fill-opacity="1" fill-rule="evenodd"/><path fill="#f9f6f2" d="M 140.964844 143.179688 C 140.832031 142.097656 140.292969 141.066406 139.378906 140.332031 C 138.457031 139.597656 137.332031 139.300781 136.25 139.410156 C 136.378906 140.488281 136.917969 141.523438 137.839844 142.253906 C 138.753906 142.988281 139.882812 143.289062 140.964844 143.179688 " fill-opacity="1" fill-rule="evenodd"/><path fill="#f9f6f2" d="M 132.894531 143.949219 C 133.6875 142.644531 133.992188 141.042969 133.621094 139.433594 C 133.246094 137.832031 132.269531 136.523438 130.980469 135.699219 C 130.1875 137.003906 129.882812 138.609375 130.253906 140.214844 C 130.625 141.820312 131.605469 143.128906 132.894531 143.949219 " fill-opacity="1" fill-rule="evenodd"/><path fill="#f9f6f2" d="M 131.628906 146.246094 C 130.773438 145.574219 129.660156 145.226562 128.492188 145.355469 C 127.324219 145.484375 126.316406 146.070312 125.628906 146.914062 C 126.484375 147.585938 127.597656 147.933594 128.765625 147.804688 C 129.933594 147.675781 130.941406 147.089844 131.628906 146.246094 " fill-opacity="1" fill-rule="evenodd"/><path fill="#f9f6f2" d="M 124.105469 129.230469 C 123.183594 130.855469 122.867188 132.835938 123.386719 134.785156 C 123.902344 136.738281 125.152344 138.300781 126.757812 139.257812 C 127.683594 137.632812 127.992188 135.65625 127.476562 133.703125 C 126.960938 131.75 125.714844 130.1875 124.105469 129.230469 " fill-opacity="1" fill-rule="evenodd"/><path fill="#f9f6f2" d="M 120.511719 143.773438 C 121.289062 142.839844 122.414062 142.195312 123.714844 142.058594 C 125.015625 141.921875 126.25 142.316406 127.203125 143.074219 C 126.429688 144.003906 125.300781 144.648438 124 144.785156 C 122.699219 144.921875 121.464844 144.527344 120.511719 143.773438 " fill-opacity="1" fill-rule="evenodd"/><path fill="#f9f6f2" d="M 118.316406 138.414062 C 118.855469 139.40625 119.769531 140.195312 120.9375 140.550781 C 122.105469 140.910156 123.304688 140.765625 124.308594 140.25 C 123.765625 139.257812 122.851562 138.464844 121.6875 138.109375 C 120.519531 137.753906 119.320312 137.894531 118.316406 138.414062 " fill-opacity="1" fill-rule="evenodd"/><path fill="#f9f6f2" d="M 134.585938 133.945312 C 135.058594 135.253906 136.019531 136.386719 137.375 137.039062 C 138.722656 137.695312 140.207031 137.746094 141.527344 137.300781 C 141.054688 135.992188 140.089844 134.863281 138.742188 134.207031 C 137.390625 133.554688 135.902344 133.503906 134.585938 133.945312 " fill-opacity="1" fill-rule="evenodd"/><path fill="#f9f6f2" d="M 132.964844 126.3125 C 133.625 127.9375 134.894531 129.316406 136.632812 130.074219 C 138.367188 130.832031 140.242188 130.824219 141.882812 130.199219 C 141.226562 128.574219 139.953125 127.195312 138.21875 126.4375 C 136.480469 125.679688 134.609375 125.691406 132.964844 126.3125 " fill-opacity="1" fill-rule="evenodd"/><path fill="#f9f6f2" d="M 139.296875 111.058594 C 140.503906 112.230469 141.269531 113.855469 141.316406 115.667969 C 141.363281 117.484375 140.679688 119.144531 139.535156 120.375 C 138.328125 119.207031 137.5625 117.582031 137.515625 115.765625 C 137.46875 113.953125 138.152344 112.289062 139.296875 111.058594 " fill-opacity="1" fill-rule="evenodd"/><path fill="#f9f6f2" d="M 129.917969 121.730469 C 131.019531 120.78125 132.472656 120.246094 134.035156 120.347656 C 135.59375 120.449219 136.96875 121.160156 137.945312 122.238281 C 136.84375 123.183594 135.386719 123.71875 133.824219 123.617188 C 132.265625 123.519531 130.886719 122.804688 129.917969 121.730469 " fill-opacity="1" fill-rule="evenodd"/><path fill="#f9f6f2" d="M 146.742188 139.003906 C 146.304688 138.007812 146.242188 136.839844 146.65625 135.742188 C 147.074219 134.644531 147.890625 133.8125 148.875 133.355469 C 149.316406 134.351562 149.375 135.515625 148.960938 136.613281 C 148.542969 137.714844 147.730469 138.542969 146.742188 139.003906 " fill-opacity="1" fill-rule="evenodd"/><path fill="#f9f6f2" d="M 143.292969 169.929688 C 144.332031 169.160156 145.082031 168 145.304688 166.625 C 145.527344 165.25 145.175781 163.910156 144.433594 162.855469 C 143.394531 163.625 142.644531 164.785156 142.421875 166.160156 C 142.199219 167.535156 142.546875 168.871094 143.292969 169.929688 " fill-opacity="1" fill-rule="evenodd"/><path fill="#f9f6f2" d="M 147.46875 166.273438 C 147.089844 165.570312 146.980469 164.726562 147.21875 163.902344 C 147.457031 163.074219 148.003906 162.421875 148.699219 162.03125 C 149.074219 162.730469 149.1875 163.578125 148.949219 164.402344 C 148.707031 165.230469 148.160156 165.882812 147.46875 166.273438 " fill-opacity="1" fill-rule="evenodd"/><path fill="#f9f6f2" d="M 136.566406 162.597656 C 137.226562 161.707031 138.222656 161.0625 139.40625 160.871094 C 140.589844 160.675781 141.738281 160.980469 142.644531 161.621094 C 141.984375 162.511719 140.988281 163.15625 139.808594 163.347656 C 138.621094 163.539062 137.476562 163.238281 136.566406 162.597656 " fill-opacity="1" fill-rule="evenodd"/><path fill="#f9f6f2" d="M 141.472656 158.035156 C 142.316406 157.65625 143.304688 157.59375 144.238281 157.9375 C 145.175781 158.285156 145.886719 158.972656 146.28125 159.804688 C 145.441406 160.1875 144.453125 160.246094 143.515625 159.902344 C 142.578125 159.554688 141.867188 158.867188 141.472656 158.035156 " fill-opacity="1" fill-rule="evenodd"/><path fill="#f9f6f2" d="M 138.574219 158.597656 C 138.164062 157.867188 138.03125 156.984375 138.265625 156.117188 C 138.5 155.246094 139.058594 154.550781 139.78125 154.128906 C 140.191406 154.859375 140.324219 155.742188 140.089844 156.609375 C 139.851562 157.480469 139.292969 158.175781 138.574219 158.597656 " fill-opacity="1" fill-rule="evenodd"/><path fill="#f9f6f2" d="M 170.144531 144.757812 C 168.996094 144.167969 167.621094 144.007812 166.289062 144.421875 C 164.957031 144.832031 163.914062 145.738281 163.300781 146.871094 C 164.449219 147.460938 165.820312 147.621094 167.152344 147.210938 C 168.484375 146.800781 169.527344 145.894531 170.144531 144.757812 " fill-opacity="1" fill-rule="evenodd"/><path fill="#f9f6f2" d="M 157.539062 134.042969 C 156.429688 134.398438 155.449219 135.171875 154.863281 136.285156 C 154.273438 137.394531 154.1875 138.636719 154.519531 139.757812 C 155.628906 139.398438 156.605469 138.628906 157.191406 137.511719 C 157.78125 136.402344 157.867188 135.160156 157.539062 134.042969 " fill-opacity="1" fill-rule="evenodd"/><path fill="#f9f6f2" d="M 159.472656 140.617188 C 158.488281 141.34375 157.78125 142.4375 157.570312 143.734375 C 157.355469 145.035156 157.6875 146.296875 158.386719 147.292969 C 159.371094 146.570312 160.082031 145.476562 160.292969 144.175781 C 160.5 142.875 160.171875 141.613281 159.472656 140.617188 " fill-opacity="1" fill-rule="evenodd"/><path fill="#f9f6f2" d="M 155.050781 126.332031 C 155.199219 127.320312 155.71875 128.253906 156.578125 128.902344 C 157.441406 129.554688 158.480469 129.800781 159.472656 129.671875 C 159.324219 128.683594 158.804688 127.75 157.945312 127.101562 C 157.082031 126.449219 156.042969 126.203125 155.050781 126.332031 " fill-opacity="1" fill-rule="evenodd"/><path fill="#f9f6f2" d="M 163.566406 121.496094 C 162.53125 122.03125 161.699219 122.957031 161.304688 124.152344 C 160.914062 125.347656 161.035156 126.589844 161.550781 127.632812 C 162.585938 127.097656 163.417969 126.167969 163.8125 124.972656 C 164.203125 123.78125 164.082031 122.539062 163.566406 121.496094 " fill-opacity="1" fill-rule="evenodd"/><path fill="#f9f6f2" d="M 165.410156 125.886719 C 164.558594 126.328125 163.878906 127.089844 163.554688 128.070312 C 163.230469 129.050781 163.332031 130.070312 163.75 130.929688 C 164.601562 130.488281 165.285156 129.726562 165.609375 128.746094 C 165.933594 127.765625 165.832031 126.746094 165.410156 125.886719 " fill-opacity="1" fill-rule="evenodd"/><path fill="#f9f6f2" d="M 157.109375 131.84375 C 158.023438 131.554688 159.046875 131.609375 159.96875 132.074219 C 160.890625 132.539062 161.539062 133.328125 161.847656 134.234375 C 160.933594 134.523438 159.914062 134.46875 158.992188 134.003906 C 158.070312 133.539062 157.421875 132.75 157.109375 131.84375 " fill-opacity="1" fill-rule="evenodd"/><path fill="#f9f6f2" d="M 160.039062 118.570312 C 159.324219 119.207031 158.847656 120.109375 158.773438 121.140625 C 158.703125 122.171875 159.050781 123.136719 159.671875 123.863281 C 160.386719 123.226562 160.863281 122.324219 160.933594 121.292969 C 161.003906 120.261719 160.660156 119.296875 160.039062 118.570312 " fill-opacity="1" fill-rule="evenodd"/><path fill="#f9f6f2" d="M 164.308594 115.507812 C 163.996094 114.175781 163.1875 112.957031 161.941406 112.164062 C 160.699219 111.371094 159.253906 111.148438 157.917969 111.425781 C 158.226562 112.757812 159.035156 113.976562 160.277344 114.769531 C 161.523438 115.5625 162.96875 115.785156 164.308594 115.507812 " fill-opacity="1" fill-rule="evenodd"/><path fill="#f9f6f2" d="M 162.726562 108.074219 C 161.976562 107.496094 161.445312 106.640625 161.304688 105.632812 C 161.160156 104.625 161.433594 103.652344 161.992188 102.890625 C 162.742188 103.46875 163.273438 104.328125 163.417969 105.332031 C 163.558594 106.339844 163.285156 107.3125 162.726562 108.074219 " fill-opacity="1" fill-rule="evenodd"/><path fill="#f9f6f2" d="M 171.378906 118.367188 C 172.648438 117.96875 173.765625 117.097656 174.445312 115.832031 C 175.125 114.570312 175.234375 113.152344 174.867188 111.875 C 173.597656 112.273438 172.476562 113.148438 171.796875 114.410156 C 171.121094 115.675781 171.007812 117.089844 171.378906 118.367188 " fill-opacity="1" fill-rule="evenodd"/><path fill="#f9f6f2" d="M 174.855469 147.695312 C 173.953125 147.230469 172.871094 147.105469 171.820312 147.425781 C 170.773438 147.75 169.949219 148.464844 169.464844 149.359375 C 170.371094 149.824219 171.449219 149.949219 172.5 149.625 C 173.546875 149.300781 174.371094 148.589844 174.855469 147.695312 " fill-opacity="1" fill-rule="evenodd"/><path fill="#f9f6f2" d="M 148.722656 145.738281 C 148.613281 146.640625 148.160156 147.503906 147.394531 148.117188 C 146.625 148.734375 145.6875 148.980469 144.777344 148.890625 C 144.890625 147.988281 145.339844 147.125 146.105469 146.507812 C 146.878906 145.894531 147.816406 145.648438 148.722656 145.738281 " fill-opacity="1" fill-rule="evenodd"/><path fill="#f9f6f2" d="M 153.246094 149.285156 C 152.699219 150.179688 151.816406 150.867188 150.722656 151.140625 C 149.628906 151.417969 148.527344 151.230469 147.625 150.703125 C 148.167969 149.8125 149.050781 149.125 150.144531 148.851562 C 151.238281 148.574219 152.34375 148.757812 153.246094 149.285156 " fill-opacity="1" fill-rule="evenodd"/><g clip-path="url(#id3)"><path fill="#f9f6f2" d="M 190.707031 100.621094 C 189.078125 100.242188 187.589844 99.25 186.621094 97.730469 C 185.648438 96.210938 185.378906 94.445312 185.71875 92.8125 C 187.347656 93.191406 188.835938 94.179688 189.804688 95.699219 C 190.773438 97.21875 191.046875 98.984375 190.707031 100.621094 " fill-opacity="1" fill-rule="evenodd"/></g><path fill="#f9f6f2" d="M 193.851562 101.34375 C 195.480469 100.964844 196.964844 99.976562 197.9375 98.453125 C 198.90625 96.933594 199.179688 95.167969 198.835938 93.535156 C 197.210938 93.910156 195.722656 94.902344 194.753906 96.421875 C 193.78125 97.9375 193.507812 99.707031 193.851562 101.34375 " fill-opacity="1" fill-rule="evenodd"/><path fill="#f9f6f2" d="M 180.40625 114.589844 C 179.226562 113.402344 178.496094 111.773438 178.476562 109.972656 C 178.464844 108.167969 179.167969 106.527344 180.328125 105.324219 C 181.507812 106.507812 182.238281 108.136719 182.253906 109.9375 C 182.269531 111.742188 181.5625 113.382812 180.40625 114.589844 " fill-opacity="1" fill-rule="evenodd"/><path fill="#f9f6f2" d="M 198.324219 110.683594 C 196.765625 110.085938 194.976562 110.074219 193.324219 110.789062 C 191.667969 111.507812 190.457031 112.820312 189.824219 114.367188 C 191.386719 114.960938 193.171875 114.972656 194.828125 114.257812 C 196.480469 113.539062 197.695312 112.230469 198.324219 110.683594 " fill-opacity="1" fill-rule="evenodd"/><path fill="#f9f6f2" d="M 181.035156 122.578125 C 180.417969 123.882812 179.3125 124.957031 177.847656 125.503906 C 176.390625 126.046875 174.851562 125.953125 173.53125 125.367188 C 174.144531 124.0625 175.25 122.984375 176.714844 122.445312 C 178.171875 121.902344 179.710938 121.992188 181.035156 122.578125 " fill-opacity="1" fill-rule="evenodd"/><path fill="#f9f6f2" d="M 179.386719 128.15625 C 179.378906 129.828125 178.738281 131.496094 177.46875 132.777344 C 176.199219 134.058594 174.539062 134.710938 172.867188 134.738281 C 172.878906 133.066406 173.515625 131.398438 174.785156 130.117188 C 176.054688 128.835938 177.714844 128.183594 179.386719 128.15625 " fill-opacity="1" fill-rule="evenodd"/><path fill="#f9f6f2" d="M 179.554688 134.429688 C 180.140625 135.523438 180.316406 136.835938 179.945312 138.121094 C 179.574219 139.410156 178.722656 140.429688 177.640625 141.039062 C 177.054688 139.945312 176.878906 138.632812 177.25 137.347656 C 177.621094 136.058594 178.472656 135.042969 179.554688 134.429688 " fill-opacity="1" fill-rule="evenodd"/><path fill="#f9f6f2" d="M 188.5625 118.839844 C 187.664062 119.679688 186.449219 120.179688 185.121094 120.148438 C 183.792969 120.117188 182.601562 119.558594 181.746094 118.675781 C 182.648438 117.839844 183.863281 117.335938 185.1875 117.371094 C 186.515625 117.398438 187.707031 117.960938 188.5625 118.839844 " fill-opacity="1" fill-rule="evenodd"/><path fill="#f9f6f2" d="M 177.917969 93.539062 C 177.707031 94.921875 176.980469 96.230469 175.769531 97.140625 C 174.5625 98.050781 173.105469 98.390625 171.714844 98.210938 C 171.925781 96.828125 172.65625 95.519531 173.867188 94.609375 C 175.074219 93.699219 176.53125 93.359375 177.917969 93.539062 " fill-opacity="1" fill-rule="evenodd"/><path fill="#f9f6f2" d="M 178.347656 100.1875 C 177.753906 101.890625 176.515625 103.367188 174.769531 104.230469 C 173.027344 105.09375 171.101562 105.179688 169.382812 104.621094 C 169.980469 102.917969 171.21875 101.441406 172.964844 100.578125 C 174.710938 99.714844 176.632812 99.628906 178.347656 100.1875 " fill-opacity="1" fill-rule="evenodd"/><path fill="#f9f6f2" d="M 167.902344 101.3125 C 168.644531 100.546875 169.101562 99.496094 169.097656 98.34375 C 169.089844 97.1875 168.625 96.140625 167.875 95.378906 C 167.128906 96.148438 166.671875 97.199219 166.675781 98.351562 C 166.679688 99.507812 167.148438 100.550781 167.902344 101.3125 " fill-opacity="1" fill-rule="evenodd"/><path fill="#f9f6f2" d="M 194.085938 138.140625 C 194.371094 139.636719 194.09375 141.246094 193.183594 142.613281 C 192.273438 143.984375 190.902344 144.863281 189.410156 145.183594 C 189.125 143.683594 189.402344 142.078125 190.3125 140.710938 C 191.222656 139.339844 192.59375 138.457031 194.085938 138.140625 " fill-opacity="1" fill-rule="evenodd"/><path fill="#f9f6f2" d="M 213.636719 103.644531 C 212.183594 103.125 210.921875 102.066406 210.191406 100.566406 C 209.460938 99.074219 209.394531 97.425781 209.878906 95.960938 C 211.332031 96.480469 212.589844 97.539062 213.320312 99.035156 C 214.054688 100.53125 214.121094 102.179688 213.636719 103.644531 " fill-opacity="1" fill-rule="evenodd"/><path fill="#f9f6f2" d="M 215.847656 107.339844 C 217.390625 107.308594 218.921875 106.699219 220.089844 105.507812 C 221.257812 104.320312 221.835938 102.78125 221.839844 101.238281 C 220.300781 101.269531 218.769531 101.878906 217.601562 103.066406 C 216.433594 104.253906 215.851562 105.792969 215.847656 107.339844 " fill-opacity="1" fill-rule="evenodd"/><path fill="#f9f6f2" d="M 213.285156 110.324219 C 211.84375 110.027344 210.511719 109.1875 209.621094 107.867188 C 208.730469 106.550781 208.449219 105 208.71875 103.546875 C 210.160156 103.847656 211.496094 104.6875 212.382812 106.007812 C 213.273438 107.324219 213.554688 108.878906 213.285156 110.324219 " fill-opacity="1" fill-rule="evenodd"/><path fill="#f9f6f2" d="M 212.519531 117.019531 C 211.035156 116.714844 209.667969 115.851562 208.753906 114.5 C 207.839844 113.140625 207.554688 111.550781 207.828125 110.0625 C 209.308594 110.367188 210.679688 111.234375 211.589844 112.585938 C 212.503906 113.9375 212.789062 115.53125 212.519531 117.019531 " fill-opacity="1" fill-rule="evenodd"/><path fill="#f9f6f2" d="M 205.996094 123.710938 C 204.683594 122.578125 203.792969 120.945312 203.636719 119.078125 C 203.476562 117.210938 204.078125 115.457031 205.183594 114.117188 C 206.5 115.25 207.390625 116.878906 207.546875 118.746094 C 207.707031 120.613281 207.101562 122.371094 205.996094 123.710938 " fill-opacity="1" fill-rule="evenodd"/><path fill="#f9f6f2" d="M 200.785156 113.828125 C 202.246094 113.488281 203.585938 112.597656 204.457031 111.230469 C 205.328125 109.863281 205.570312 108.277344 205.261719 106.804688 C 203.800781 107.148438 202.464844 108.039062 201.59375 109.40625 C 200.722656 110.773438 200.476562 112.359375 200.785156 113.828125 " fill-opacity="1" fill-rule="evenodd"/><path fill="#f9f6f2" d="M 257.050781 165.527344 C 257.335938 163.640625 256.90625 161.640625 255.699219 159.972656 C 254.492188 158.304688 252.734375 157.273438 250.851562 156.949219 C 250.570312 158.835938 250.996094 160.832031 252.203125 162.5 C 253.410156 164.167969 255.167969 165.203125 257.050781 165.527344 " fill-opacity="1" fill-rule="evenodd"/><path fill="#f9f6f2" d="M 241.027344 170.324219 C 242.273438 169.402344 243.171875 168.015625 243.4375 166.367188 C 243.703125 164.71875 243.285156 163.117188 242.394531 161.851562 C 241.148438 162.773438 240.25 164.160156 239.984375 165.808594 C 239.71875 167.457031 240.136719 169.058594 241.027344 170.324219 " fill-opacity="1" fill-rule="evenodd"/><path fill="#f9f6f2" d="M 242.929688 159.496094 C 243.742188 160.222656 244.824219 160.648438 246 160.601562 C 247.175781 160.550781 248.21875 160.039062 248.964844 159.246094 C 248.15625 158.515625 247.074219 158.089844 245.898438 158.140625 C 244.722656 158.1875 243.675781 158.703125 242.929688 159.496094 " fill-opacity="1" fill-rule="evenodd"/><path fill="#f9f6f2" d="M 250.007812 148.757812 C 250.65625 149.933594 250.863281 151.359375 250.476562 152.761719 C 250.085938 154.160156 249.171875 155.269531 248.011719 155.945312 C 247.359375 154.769531 247.152344 153.34375 247.542969 151.941406 C 247.933594 150.542969 248.84375 149.429688 250.007812 148.757812 " fill-opacity="1" fill-rule="evenodd"/><path fill="#f9f6f2" d="M 253.242188 154.085938 C 253.921875 155.648438 255.1875 156.953125 256.894531 157.648438 C 258.597656 158.339844 260.417969 158.285156 261.992188 157.640625 C 261.3125 156.082031 260.046875 154.773438 258.34375 154.078125 C 256.640625 153.386719 254.820312 153.441406 253.242188 154.085938 " fill-opacity="1" fill-rule="evenodd"/><path fill="#f9f6f2" d="M 254.925781 151.476562 C 254.515625 150.054688 254.640625 148.476562 255.394531 147.070312 C 256.152344 145.667969 257.398438 144.695312 258.8125 144.253906 C 259.222656 145.671875 259.097656 147.25 258.339844 148.65625 C 257.585938 150.0625 256.335938 151.035156 254.925781 151.476562 " fill-opacity="1" fill-rule="evenodd"/><path fill="#f9f6f2" d="M 248.328125 164.511719 C 249.371094 164.84375 250.285156 165.5625 250.832031 166.601562 C 251.382812 167.640625 251.46875 168.800781 251.160156 169.847656 C 250.125 169.515625 249.210938 168.796875 248.65625 167.757812 C 248.109375 166.71875 248.023438 165.558594 248.328125 164.511719 " fill-opacity="1" fill-rule="evenodd"/><path fill="#f9f6f2" d="M 223.222656 131.796875 C 224.757812 131.925781 226.347656 131.476562 227.628906 130.417969 C 228.914062 129.359375 229.65625 127.886719 229.820312 126.351562 C 228.28125 126.222656 226.695312 126.667969 225.410156 127.730469 C 224.128906 128.789062 223.386719 130.261719 223.222656 131.796875 " fill-opacity="1" fill-rule="evenodd"/><path fill="#f9f6f2" d="M 225.355469 123.703125 C 226.871094 123.980469 228.492188 123.6875 229.875 122.757812 C 231.253906 121.824219 232.132812 120.429688 232.445312 118.917969 C 230.925781 118.640625 229.304688 118.933594 227.921875 119.867188 C 226.542969 120.796875 225.664062 122.191406 225.355469 123.703125 " fill-opacity="1" fill-rule="evenodd"/><path fill="#f9f6f2" d="M 221.984375 125.277344 C 220.601562 124.597656 219.472656 123.394531 218.917969 121.824219 C 218.363281 120.253906 218.488281 118.609375 219.140625 117.214844 C 220.523438 117.894531 221.652344 119.09375 222.203125 120.664062 C 222.761719 122.234375 222.632812 123.878906 221.984375 125.277344 " fill-opacity="1" fill-rule="evenodd"/><path fill="#f9f6f2" d="M 223.179688 116.777344 C 221.691406 116.378906 220.347656 115.421875 219.5 113.988281 C 218.648438 112.554688 218.453125 110.917969 218.816406 109.421875 C 220.308594 109.820312 221.648438 110.78125 222.5 112.210938 C 223.347656 113.644531 223.546875 115.28125 223.179688 116.777344 " fill-opacity="1" fill-rule="evenodd"/><path fill="#f9f6f2" d="M 226.15625 117.476562 C 227.820312 117.273438 229.40625 116.441406 230.539062 115.03125 C 231.667969 113.617188 232.128906 111.886719 231.960938 110.21875 C 230.296875 110.421875 228.707031 111.25 227.578125 112.664062 C 226.449219 114.074219 225.988281 115.808594 226.15625 117.476562 " fill-opacity="1" fill-rule="evenodd"/><path fill="#f9f6f2" d="M 224.863281 112.898438 C 226.113281 111.535156 226.847656 109.707031 226.785156 107.710938 C 226.722656 105.722656 225.867188 103.941406 224.535156 102.664062 C 223.285156 104.023438 222.546875 105.855469 222.613281 107.847656 C 222.675781 109.839844 223.53125 111.617188 224.863281 112.898438 " fill-opacity="1" fill-rule="evenodd"/><path fill="#f9f6f2" d="M 232.082031 145.972656 C 232.210938 147.054688 232.75 148.085938 233.667969 148.820312 C 234.585938 149.554688 235.710938 149.851562 236.796875 149.742188 C 236.664062 148.664062 236.125 147.628906 235.207031 146.898438 C 234.289062 146.160156 233.164062 145.863281 232.082031 145.972656 " fill-opacity="1" fill-rule="evenodd"/><path fill="#f9f6f2" d="M 238.246094 146.761719 C 238.375 147.84375 238.917969 148.878906 239.835938 149.613281 C 240.753906 150.34375 241.878906 150.644531 242.960938 150.535156 C 242.828125 149.457031 242.289062 148.421875 241.371094 147.691406 C 240.453125 146.953125 239.328125 146.65625 238.246094 146.761719 " fill-opacity="1" fill-rule="evenodd"/><path fill="#f9f6f2" d="M 234.203125 143.179688 C 234.335938 142.097656 234.875 141.066406 235.792969 140.332031 C 236.710938 139.597656 237.835938 139.300781 238.921875 139.410156 C 238.789062 140.488281 238.25 141.523438 237.332031 142.253906 C 236.414062 142.988281 235.289062 143.289062 234.203125 143.179688 " fill-opacity="1" fill-rule="evenodd"/><path fill="#f9f6f2" d="M 242.273438 143.949219 C 241.480469 142.644531 241.175781 141.042969 241.546875 139.433594 C 241.917969 137.832031 242.898438 136.523438 244.1875 135.699219 C 244.984375 137.003906 245.285156 138.609375 244.914062 140.214844 C 244.542969 141.820312 243.5625 143.128906 242.273438 143.949219 " fill-opacity="1" fill-rule="evenodd"/><path fill="#f9f6f2" d="M 243.535156 146.246094 C 244.398438 145.574219 245.507812 145.226562 246.675781 145.355469 C 247.84375 145.484375 248.851562 146.070312 249.542969 146.914062 C 248.683594 147.585938 247.570312 147.933594 246.402344 147.804688 C 245.234375 147.675781 244.226562 147.089844 243.535156 146.246094 " fill-opacity="1" fill-rule="evenodd"/><path fill="#f9f6f2" d="M 251.0625 129.230469 C 251.984375 130.855469 252.296875 132.835938 251.78125 134.785156 C 251.265625 136.738281 250.015625 138.300781 248.410156 139.257812 C 247.488281 137.632812 247.175781 135.65625 247.691406 133.703125 C 248.207031 131.75 249.457031 130.1875 251.0625 129.230469 " fill-opacity="1" fill-rule="evenodd"/><path fill="#f9f6f2" d="M 254.65625 143.773438 C 253.882812 142.839844 252.757812 142.195312 251.453125 142.058594 C 250.152344 141.921875 248.917969 142.316406 247.964844 143.074219 C 248.738281 144.003906 249.867188 144.648438 251.167969 144.785156 C 252.46875 144.921875 253.703125 144.527344 254.65625 143.773438 " fill-opacity="1" fill-rule="evenodd"/><path fill="#f9f6f2" d="M 256.851562 138.414062 C 256.308594 139.40625 255.394531 140.195312 254.230469 140.550781 C 253.066406 140.910156 251.863281 140.765625 250.859375 140.25 C 251.402344 139.257812 252.316406 138.464844 253.484375 138.109375 C 254.648438 137.753906 255.847656 137.894531 256.851562 138.414062 " fill-opacity="1" fill-rule="evenodd"/><path fill="#f9f6f2" d="M 240.582031 133.945312 C 240.113281 135.253906 239.148438 136.386719 237.796875 137.039062 C 236.445312 137.695312 234.960938 137.746094 233.640625 137.300781 C 234.113281 135.992188 235.078125 134.863281 236.429688 134.207031 C 237.78125 133.554688 239.265625 133.503906 240.582031 133.945312 " fill-opacity="1" fill-rule="evenodd"/><path fill="#f9f6f2" d="M 242.203125 126.3125 C 241.542969 127.9375 240.273438 129.316406 238.539062 130.074219 C 236.800781 130.832031 234.925781 130.824219 233.285156 130.199219 C 233.945312 128.574219 235.214844 127.195312 236.949219 126.4375 C 238.683594 125.679688 240.5625 125.691406 242.203125 126.3125 " fill-opacity="1" fill-rule="evenodd"/><path fill="#f9f6f2" d="M 235.875 111.058594 C 234.667969 112.230469 233.898438 113.855469 233.855469 115.667969 C 233.808594 117.484375 234.488281 119.144531 235.636719 120.375 C 236.84375 119.207031 237.609375 117.582031 237.65625 115.765625 C 237.699219 113.953125 237.019531 112.289062 235.875 111.058594 " fill-opacity="1" fill-rule="evenodd"/><path fill="#f9f6f2" d="M 245.25 121.730469 C 244.152344 120.78125 242.695312 120.246094 241.132812 120.347656 C 239.574219 120.449219 238.195312 121.160156 237.226562 122.238281 C 238.328125 123.183594 239.78125 123.71875 241.34375 123.617188 C 242.902344 123.519531 244.28125 122.804688 245.25 121.730469 " fill-opacity="1" fill-rule="evenodd"/><path fill="#f9f6f2" d="M 228.429688 139.003906 C 228.867188 138.007812 228.929688 136.839844 228.511719 135.742188 C 228.09375 134.644531 227.277344 133.8125 226.292969 133.355469 C 225.855469 134.351562 225.792969 135.515625 226.207031 136.613281 C 226.621094 137.714844 227.4375 138.542969 228.429688 139.003906 " fill-opacity="1" fill-rule="evenodd"/><path fill="#f9f6f2" d="M 231.875 169.929688 C 230.835938 169.160156 230.085938 168 229.863281 166.625 C 229.644531 165.25 229.992188 163.910156 230.734375 162.855469 C 231.773438 163.625 232.527344 164.785156 232.75 166.160156 C 232.972656 167.535156 232.621094 168.871094 231.875 169.929688 " fill-opacity="1" fill-rule="evenodd"/><path fill="#f9f6f2" d="M 227.703125 166.273438 C 228.078125 165.570312 228.191406 164.726562 227.949219 163.902344 C 227.710938 163.074219 227.164062 162.421875 226.46875 162.03125 C 226.09375 162.730469 225.980469 163.578125 226.222656 164.402344 C 226.460938 165.230469 227.003906 165.882812 227.703125 166.273438 " fill-opacity="1" fill-rule="evenodd"/><path fill="#f9f6f2" d="M 238.601562 162.597656 C 237.941406 161.707031 236.945312 161.0625 235.761719 160.871094 C 234.582031 160.675781 233.429688 160.980469 232.523438 161.621094 C 233.183594 162.511719 234.179688 163.15625 235.363281 163.347656 C 236.546875 163.539062 237.691406 163.238281 238.601562 162.597656 " fill-opacity="1" fill-rule="evenodd"/><path fill="#f9f6f2" d="M 233.699219 158.035156 C 232.851562 157.65625 231.867188 157.59375 230.925781 157.9375 C 229.992188 158.285156 229.28125 158.972656 228.886719 159.804688 C 229.730469 160.1875 230.714844 160.246094 231.652344 159.902344 C 232.589844 159.554688 233.300781 158.867188 233.699219 158.035156 " fill-opacity="1" fill-rule="evenodd"/><path fill="#f9f6f2" d="M 236.59375 158.597656 C 237.003906 157.867188 237.140625 156.984375 236.902344 156.117188 C 236.667969 155.246094 236.109375 154.550781 235.386719 154.128906 C 234.980469 154.859375 234.84375 155.742188 235.082031 156.609375 C 235.316406 157.480469 235.878906 158.175781 236.59375 158.597656 " fill-opacity="1" fill-rule="evenodd"/><path fill="#f9f6f2" d="M 217.632812 134.042969 C 218.742188 134.398438 219.71875 135.171875 220.308594 136.285156 C 220.894531 137.394531 220.984375 138.636719 220.648438 139.757812 C 219.539062 139.398438 218.566406 138.628906 217.976562 137.511719 C 217.390625 136.402344 217.300781 135.160156 217.632812 134.042969 " fill-opacity="1" fill-rule="evenodd"/><path fill="#f9f6f2" d="M 214.199219 138.3125 C 215.410156 139.203125 216.285156 140.550781 216.542969 142.15625 C 216.800781 143.753906 216.398438 145.308594 215.53125 146.535156 C 214.324219 145.644531 213.449219 144.296875 213.1875 142.699219 C 212.929688 141.097656 213.332031 139.539062 214.199219 138.3125 " fill-opacity="1" fill-rule="evenodd"/><path fill="#f9f6f2" d="M 220.117188 126.332031 C 219.96875 127.320312 219.449219 128.253906 218.589844 128.902344 C 217.726562 129.554688 216.6875 129.800781 215.695312 129.671875 C 215.84375 128.683594 216.363281 127.75 217.222656 127.101562 C 218.085938 126.449219 219.125 126.203125 220.117188 126.332031 " fill-opacity="1" fill-rule="evenodd"/><path fill="#f9f6f2" d="M 218.058594 131.84375 C 217.144531 131.554688 216.121094 131.609375 215.199219 132.074219 C 214.277344 132.539062 213.628906 133.328125 213.320312 134.234375 C 214.234375 134.523438 215.253906 134.46875 216.175781 134.003906 C 217.097656 133.539062 217.75 132.75 218.058594 131.84375 " fill-opacity="1" fill-rule="evenodd"/><path fill="#f9f6f2" d="M 226.445312 145.738281 C 226.554688 146.640625 227.003906 147.503906 227.773438 148.117188 C 228.542969 148.734375 229.484375 148.980469 230.390625 148.890625 C 230.28125 147.988281 229.828125 147.125 229.0625 146.507812 C 228.292969 145.894531 227.351562 145.648438 226.445312 145.738281 " fill-opacity="1" fill-rule="evenodd"/><path fill="#f9f6f2" d="M 221.921875 149.285156 C 222.46875 150.179688 223.351562 150.867188 224.445312 151.140625 C 225.539062 151.417969 226.640625 151.230469 227.546875 150.703125 C 227 149.8125 226.117188 149.125 225.023438 148.851562 C 223.929688 148.574219 222.828125 148.757812 221.921875 149.285156 " fill-opacity="1" fill-rule="evenodd"/><path fill="#f9f6f2" d="M 204.707031 136.941406 C 205.894531 136.582031 206.949219 135.777344 207.59375 134.605469 C 208.242188 133.433594 208.359375 132.113281 208.027344 130.917969 C 206.839844 131.277344 205.785156 132.078125 205.136719 133.25 C 204.488281 134.425781 204.371094 135.746094 204.707031 136.941406 " fill-opacity="1" fill-rule="evenodd"/><path fill="#f9f6f2" d="M 208.996094 127.617188 C 209.976562 128.378906 211.242188 128.773438 212.570312 128.621094 C 213.902344 128.46875 215.046875 127.800781 215.832031 126.835938 C 214.851562 126.074219 213.585938 125.683594 212.253906 125.832031 C 210.925781 125.984375 209.777344 126.652344 208.996094 127.617188 " fill-opacity="1" fill-rule="evenodd"/><path fill="#f9f6f2" d="M 206.871094 149.042969 C 208.082031 149.222656 209.355469 148.953125 210.425781 148.183594 C 211.492188 147.414062 212.152344 146.289062 212.359375 145.085938 C 211.152344 144.90625 209.878906 145.175781 208.808594 145.945312 C 207.742188 146.714844 207.082031 147.839844 206.871094 149.042969 " fill-opacity="1" fill-rule="evenodd"/><g clip-path="url(#id4)"><path fill="#f9f6f2" d="M 187.585938 190.503906 C 242.425781 190.503906 286.886719 191.214844 286.886719 192.097656 C 286.886719 192.976562 242.425781 193.691406 187.585938 193.691406 C 132.742188 193.691406 88.285156 192.976562 88.285156 192.097656 C 88.285156 191.214844 132.742188 190.503906 187.585938 190.503906 " fill-opacity="1" fill-rule="evenodd"/></g><g clip-path="url(#id5)"><path fill="#f9f6f2" d="M 187.585938 246.386719 C 242.425781 246.386719 286.886719 247.101562 286.886719 247.980469 C 286.886719 248.863281 242.425781 249.574219 187.585938 249.574219 C 132.742188 249.574219 88.285156 248.863281 88.285156 247.980469 C 88.285156 247.101562 132.742188 246.386719 187.585938 246.386719 " fill-opacity="1" fill-rule="evenodd"/></g><path fill="#004aad" d="M 165.390625 37.5 L 88.207031 37.5 L 88.207031 131.25 L 95.914062 131.25 L 95.914062 45.207031 L 181.957031 45.207031 L 181.957031 37.5 L 165.390625 37.5 " fill-opacity="1" fill-rule="nonzero"/><path fill="#004aad" d="M 286.789062 114.683594 L 286.789062 37.5 L 193.039062 37.5 L 193.039062 45.207031 L 279.082031 45.207031 L 279.082031 131.25 L 286.789062 131.25 L 286.789062 114.683594 " fill-opacity="1" fill-rule="nonzero"/><path stroke-linecap="butt" transform="matrix(7.5, 0, 0, 7.5, 135.201867, 41.249997)" fill="none" stroke-linejoin="miter" d="M 0.000167757 0.000000361167 L 16.000169 0.000000361167 " stroke="#004aad" stroke-width="1" stroke-opacity="1" stroke-miterlimit="4"/><g fill="#f9f6f2" fill-opacity="1"><g transform="translate(92.200435, 227.65456)"><g><path d="M 5.453125 -18.15625 L 5.453125 0 L 1.3125 0 L 1.3125 -18.15625 Z M 5.453125 -18.15625 "/></g></g></g><g fill="#f9f6f2" fill-opacity="1"><g transform="translate(98.975223, 227.65456)"><g><path d="M 5.453125 -11.265625 L 5.453125 0 L 1.3125 0 L 1.3125 -18.15625 L 5.453125 -18.15625 L 12.671875 -6.890625 L 12.71875 -6.890625 L 12.71875 -18.15625 L 16.859375 -18.15625 L 16.859375 0 L 12.71875 0 L 5.5 -11.265625 Z M 5.453125 -11.265625 "/></g></g></g><g fill="#f9f6f2" fill-opacity="1"><g transform="translate(117.143987, 227.65456)"><g><path d="M 8.015625 -18.484375 C 8.992188 -18.484375 9.953125 -18.335938 10.890625 -18.046875 C 11.828125 -17.765625 12.523438 -17.484375 12.984375 -17.203125 L 13.640625 -16.765625 L 11.96875 -13.46875 C 11.832031 -13.550781 11.644531 -13.660156 11.40625 -13.796875 C 11.175781 -13.941406 10.738281 -14.128906 10.09375 -14.359375 C 9.445312 -14.597656 8.847656 -14.71875 8.296875 -14.71875 C 7.609375 -14.71875 7.078125 -14.570312 6.703125 -14.28125 C 6.328125 -13.988281 6.140625 -13.59375 6.140625 -13.09375 C 6.140625 -12.84375 6.226562 -12.609375 6.40625 -12.390625 C 6.582031 -12.179688 6.878906 -11.957031 7.296875 -11.71875 C 7.722656 -11.476562 8.097656 -11.28125 8.421875 -11.125 C 8.742188 -10.976562 9.242188 -10.757812 9.921875 -10.46875 C 11.097656 -9.96875 12.097656 -9.289062 12.921875 -8.4375 C 13.753906 -7.582031 14.171875 -6.609375 14.171875 -5.515625 C 14.171875 -4.472656 13.984375 -3.5625 13.609375 -2.78125 C 13.234375 -2.007812 12.71875 -1.40625 12.0625 -0.96875 C 11.414062 -0.53125 10.695312 -0.207031 9.90625 0 C 9.113281 0.21875 8.253906 0.328125 7.328125 0.328125 C 6.535156 0.328125 5.753906 0.242188 4.984375 0.078125 C 4.222656 -0.078125 3.585938 -0.273438 3.078125 -0.515625 C 2.566406 -0.753906 2.101562 -0.988281 1.6875 -1.21875 C 1.28125 -1.457031 0.984375 -1.660156 0.796875 -1.828125 L 0.5 -2.0625 L 2.578125 -5.546875 C 2.753906 -5.398438 2.992188 -5.210938 3.296875 -4.984375 C 3.609375 -4.753906 4.15625 -4.445312 4.9375 -4.0625 C 5.71875 -3.6875 6.410156 -3.5 7.015625 -3.5 C 8.765625 -3.5 9.640625 -4.09375 9.640625 -5.28125 C 9.640625 -5.53125 9.578125 -5.757812 9.453125 -5.96875 C 9.328125 -6.1875 9.101562 -6.398438 8.78125 -6.609375 C 8.46875 -6.828125 8.191406 -6.992188 7.953125 -7.109375 C 7.710938 -7.234375 7.316406 -7.425781 6.765625 -7.6875 C 6.210938 -7.945312 5.804688 -8.140625 5.546875 -8.265625 C 4.441406 -8.816406 3.585938 -9.5 2.984375 -10.3125 C 2.390625 -11.125 2.09375 -12 2.09375 -12.9375 C 2.09375 -14.5625 2.691406 -15.890625 3.890625 -16.921875 C 5.097656 -17.960938 6.472656 -18.484375 8.015625 -18.484375 Z M 8.015625 -18.484375 "/></g></g></g><g fill="#f9f6f2" fill-opacity="1"><g transform="translate(131.925358, 227.65456)"><g><path d="M 15.265625 -18.15625 L 15.265625 -6.453125 C 15.265625 -4.222656 14.660156 -2.535156 13.453125 -1.390625 C 12.253906 -0.242188 10.492188 0.328125 8.171875 0.328125 C 5.859375 0.328125 4.097656 -0.242188 2.890625 -1.390625 C 1.691406 -2.535156 1.09375 -4.222656 1.09375 -6.453125 L 1.09375 -18.15625 L 5.234375 -18.15625 L 5.234375 -7.65625 C 5.234375 -6.1875 5.460938 -5.164062 5.921875 -4.59375 C 6.390625 -4.019531 7.144531 -3.734375 8.1875 -3.734375 C 9.226562 -3.734375 9.976562 -4.019531 10.4375 -4.59375 C 10.894531 -5.164062 11.125 -6.1875 11.125 -7.65625 L 11.125 -18.15625 Z M 15.265625 -18.15625 "/></g></g></g><g fill="#f9f6f2" fill-opacity="1"><g transform="translate(148.290443, 227.65456)"><g><path d="M 1.3125 -18.15625 L 7.8125 -18.15625 C 9.550781 -18.15625 10.972656 -17.6875 12.078125 -16.75 C 13.179688 -15.820312 13.734375 -14.492188 13.734375 -12.765625 C 13.734375 -11.429688 13.394531 -10.3125 12.71875 -9.40625 C 12.050781 -8.5 11.148438 -7.863281 10.015625 -7.5 L 16.265625 0 L 11 0 L 5.453125 -7.171875 L 5.453125 0 L 1.3125 0 Z M 5.453125 -10.09375 L 5.9375 -10.09375 C 6.320312 -10.09375 6.644531 -10.097656 6.90625 -10.109375 C 7.164062 -10.128906 7.460938 -10.179688 7.796875 -10.265625 C 8.140625 -10.359375 8.414062 -10.484375 8.625 -10.640625 C 8.832031 -10.804688 9.007812 -11.039062 9.15625 -11.34375 C 9.300781 -11.65625 9.375 -12.03125 9.375 -12.46875 C 9.375 -12.914062 9.300781 -13.289062 9.15625 -13.59375 C 9.007812 -13.90625 8.832031 -14.140625 8.625 -14.296875 C 8.414062 -14.460938 8.140625 -14.585938 7.796875 -14.671875 C 7.460938 -14.765625 7.164062 -14.816406 6.90625 -14.828125 C 6.644531 -14.835938 6.320312 -14.84375 5.9375 -14.84375 L 5.453125 -14.84375 Z M 5.453125 -10.09375 "/></g></g></g><g fill="#f9f6f2" fill-opacity="1"><g transform="translate(164.039641, 227.65456)"><g><path d="M 10.53125 -18.15625 L 17.859375 0 L 13.421875 0 L 12.078125 -3.625 L 5.171875 -3.625 L 3.828125 0 L -0.609375 0 L 6.703125 -18.15625 Z M 10.671875 -7.265625 L 8.640625 -12.546875 L 8.609375 -12.546875 L 6.578125 -7.265625 Z M 10.671875 -7.265625 "/></g></g></g><g fill="#f9f6f2" fill-opacity="1"><g transform="translate(181.28457, 227.65456)"><g/></g></g><g fill="#f9f6f2" fill-opacity="1"><g transform="translate(187.289502, 227.65456)"><g><path d="M 1.3125 -18.15625 L 6.953125 -18.15625 C 8.648438 -18.15625 10.003906 -17.789062 11.015625 -17.0625 C 12.035156 -16.332031 12.546875 -15.15625 12.546875 -13.53125 C 12.546875 -11.707031 11.789062 -10.410156 10.28125 -9.640625 C 12.851562 -9.179688 14.140625 -7.65625 14.140625 -5.0625 C 14.140625 -3.53125 13.613281 -2.300781 12.5625 -1.375 C 11.507812 -0.457031 10.054688 0 8.203125 0 L 1.3125 0 Z M 5.453125 -11.046875 L 5.78125 -11.046875 C 6.707031 -11.046875 7.394531 -11.207031 7.84375 -11.53125 C 8.300781 -11.851562 8.53125 -12.378906 8.53125 -13.109375 C 8.53125 -14.335938 7.613281 -14.953125 5.78125 -14.953125 L 5.453125 -14.953125 Z M 5.453125 -3.1875 L 6.75 -3.1875 C 8.78125 -3.1875 9.796875 -3.863281 9.796875 -5.21875 C 9.796875 -6.019531 9.539062 -6.597656 9.03125 -6.953125 C 8.519531 -7.304688 7.757812 -7.484375 6.75 -7.484375 L 5.453125 -7.484375 Z M 5.453125 -3.1875 "/></g></g></g><g fill="#f9f6f2" fill-opacity="1"><g transform="translate(201.938888, 227.65456)"><g><path d="M 1.3125 -18.15625 L 7.8125 -18.15625 C 9.550781 -18.15625 10.972656 -17.6875 12.078125 -16.75 C 13.179688 -15.820312 13.734375 -14.492188 13.734375 -12.765625 C 13.734375 -11.429688 13.394531 -10.3125 12.71875 -9.40625 C 12.050781 -8.5 11.148438 -7.863281 10.015625 -7.5 L 16.265625 0 L 11 0 L 5.453125 -7.171875 L 5.453125 0 L 1.3125 0 Z M 5.453125 -10.09375 L 5.9375 -10.09375 C 6.320312 -10.09375 6.644531 -10.097656 6.90625 -10.109375 C 7.164062 -10.128906 7.460938 -10.179688 7.796875 -10.265625 C 8.140625 -10.359375 8.414062 -10.484375 8.625 -10.640625 C 8.832031 -10.804688 9.007812 -11.039062 9.15625 -11.34375 C 9.300781 -11.65625 9.375 -12.03125 9.375 -12.46875 C 9.375 -12.914062 9.300781 -13.289062 9.15625 -13.59375 C 9.007812 -13.90625 8.832031 -14.140625 8.625 -14.296875 C 8.414062 -14.460938 8.140625 -14.585938 7.796875 -14.671875 C 7.460938 -14.765625 7.164062 -14.816406 6.90625 -14.828125 C 6.644531 -14.835938 6.320312 -14.84375 5.9375 -14.84375 L 5.453125 -14.84375 Z M 5.453125 -10.09375 "/></g></g></g><g fill="#f9f6f2" fill-opacity="1"><g transform="translate(217.688086, 227.65456)"><g><path d="M 0.5 -9.09375 C 0.5 -11.71875 1.394531 -13.9375 3.1875 -15.75 C 4.976562 -17.570312 7.132812 -18.484375 9.65625 -18.484375 C 12.195312 -18.484375 14.351562 -17.578125 16.125 -15.765625 C 17.894531 -13.953125 18.78125 -11.726562 18.78125 -9.09375 C 18.78125 -6.4375 17.90625 -4.203125 16.15625 -2.390625 C 14.414062 -0.578125 12.25 0.328125 9.65625 0.328125 C 7 0.328125 4.804688 -0.566406 3.078125 -2.359375 C 1.359375 -4.160156 0.5 -6.40625 0.5 -9.09375 Z M 4.96875 -9.09375 C 4.96875 -8.132812 5.113281 -7.257812 5.40625 -6.46875 C 5.707031 -5.6875 6.222656 -5.023438 6.953125 -4.484375 C 7.679688 -3.941406 8.582031 -3.671875 9.65625 -3.671875 C 11.195312 -3.671875 12.359375 -4.195312 13.140625 -5.25 C 13.929688 -6.3125 14.328125 -7.59375 14.328125 -9.09375 C 14.328125 -10.570312 13.925781 -11.84375 13.125 -12.90625 C 12.320312 -13.96875 11.164062 -14.5 9.65625 -14.5 C 8.15625 -14.5 7 -13.96875 6.1875 -12.90625 C 5.375 -11.84375 4.96875 -10.570312 4.96875 -9.09375 Z M 4.96875 -9.09375 "/></g></g></g><g fill="#f9f6f2" fill-opacity="1"><g transform="translate(236.978646, 227.65456)"><g><path d="M 17.84375 0 L 12.140625 0 L 5.453125 -7.703125 L 5.453125 0 L 1.3125 0 L 1.3125 -18.15625 L 5.453125 -18.15625 L 5.453125 -10.734375 L 11.6875 -18.15625 L 16.703125 -18.15625 L 9.390625 -9.546875 Z M 17.84375 0 "/></g></g></g><g fill="#f9f6f2" fill-opacity="1"><g transform="translate(254.289562, 227.65456)"><g><path d="M 11.703125 -18.15625 L 11.703125 -14.515625 L 5.453125 -14.515625 L 5.453125 -10.90625 L 11.4375 -10.90625 L 11.4375 -7.28125 L 5.453125 -7.28125 L 5.453125 -3.625 L 11.703125 -3.625 L 11.703125 0 L 1.3125 0 L 1.3125 -18.15625 Z M 11.703125 -18.15625 "/></g></g></g><g fill="#f9f6f2" fill-opacity="1"><g transform="translate(267.047286, 227.65456)"><g><path d="M 1.3125 -18.15625 L 7.8125 -18.15625 C 9.550781 -18.15625 10.972656 -17.6875 12.078125 -16.75 C 13.179688 -15.820312 13.734375 -14.492188 13.734375 -12.765625 C 13.734375 -11.429688 13.394531 -10.3125 12.71875 -9.40625 C 12.050781 -8.5 11.148438 -7.863281 10.015625 -7.5 L 16.265625 0 L 11 0 L 5.453125 -7.171875 L 5.453125 0 L 1.3125 0 Z M 5.453125 -10.09375 L 5.9375 -10.09375 C 6.320312 -10.09375 6.644531 -10.097656 6.90625 -10.109375 C 7.164062 -10.128906 7.460938 -10.179688 7.796875 -10.265625 C 8.140625 -10.359375 8.414062 -10.484375 8.625 -10.640625 C 8.832031 -10.804688 9.007812 -11.039062 9.15625 -11.34375 C 9.300781 -11.65625 9.375 -12.03125 9.375 -12.46875 C 9.375 -12.914062 9.300781 -13.289062 9.15625 -13.59375 C 9.007812 -13.90625 8.832031 -14.140625 8.625 -14.296875 C 8.414062 -14.460938 8.140625 -14.585938 7.796875 -14.671875 C 7.460938 -14.765625 7.164062 -14.816406 6.90625 -14.828125 C 6.644531 -14.835938 6.320312 -14.84375 5.9375 -14.84375 L 5.453125 -14.84375 Z M 5.453125 -10.09375 "/></g></g></g></svg>